<?xml version="1.0" encoding="UTF-8" standalone="no"?>
<svg
   xmlns="http://www.w3.org/2000/svg"
   viewBox="18 13 26 26"
>
  <defs
     id="defs64967" />
  <metadata
     id="metadata64970">
  </metadata>
  <g
     id="layer1"
     transform="translate(-4.3148108,-7.706439)">
    <rect
       style="fill:#333481;fill-opacity:1;stroke-width:0.110915;stroke-linecap:round;stop-color:#000000"
       id="rect1021"
       width="60"
       height="60"
       x="4.3148108"
       y="7.706439" />
    <g
       id="g69575"
       transform="translate(-255.45756,-11.335622)">
      <g
         id="g69386"
         transform="translate(0,2.6458333)">
        <path
           style="color:#000000;display:inline;overflow:visible;vector-effect:none;fill:#ac9565;fill-opacity:1;fill-rule:nonzero;stroke:none;stroke-width:0.0479311;stroke-linecap:butt;stroke-linejoin:miter;stroke-miterlimit:4;stroke-dasharray:none;stroke-dashoffset:0;stroke-opacity:1;paint-order:normal"
           d="m 291.7963,40.783495 c 0.11248,0.0463 0.16582,0.17459 0.11949,0.28698 l -3.26517,7.92349 c -0.0465,0.11237 -0.17457,0.16579 -0.28697,0.11947 l -7.92339,-3.26541 c -0.11242,-0.0464 -0.16528,-0.17437 -0.11896,-0.28677 l 3.26517,-7.92349 c 0.0465,-0.11237 0.17399,-0.16603 0.28646,-0.11968 z m -3.41553,-0.0934 -2.01829,-0.83175 c -0.18185,-0.075 -0.38833,0.011 -0.46326,0.19286 -0.075,0.18185 0.0111,0.38831 0.19285,0.46326 l 2.0183,0.83175 c 0.18185,0.075 0.3888,-0.0108 0.46376,-0.19265 0.075,-0.18185 -0.0114,-0.38852 -0.19336,-0.46347 z"
           id="path3298"/>
        <path
           style="fill:none;stroke:#ffffff;stroke-width:0.897001;stroke-linecap:round;stroke-linejoin:round;stroke-miterlimit:4;stroke-dasharray:none;stroke-opacity:1"
           d="m 301.67275,32.246715 -4.95281,1.96963 c -0.42831,0.17204 -0.80421,0.57966 -1.05426,1.16545 l -6.44565,15.38579 -5.96474,-2.39722"
           id="path3300"/>
        <path
           id="circle3304"
           style="fill:none;stroke:#ffffff;stroke-width:1.23487;stroke-linecap:round;stroke-linejoin:round;stroke-miterlimit:4;stroke-dasharray:none;stroke-dashoffset:59.5276;paint-order:stroke fill markers;stop-color:#000000"
           d="m 295.3574,50.206536 a 1.8489143,1.8489143 0 0 1 -1.78196,1.913529 1.8489143,1.8489143 0 0 1 -1.91352,-1.781957 1.8489143,1.8489143 0 0 1 1.78195,-1.913529 1.8489143,1.8489143 0 0 1 1.91353,1.781957 z" />
        <path
           style="fill:none;stroke:#ffffff;stroke-width:1.297;stroke-linecap:round;stroke-linejoin:round;stroke-miterlimit:4;stroke-dasharray:none;stroke-opacity:1"
           d="m 301.67275,32.246715 -3.66294,1.45668"
           id="path3318"/>
        <path
           style="fill:#ffffff;stroke:none;stroke-width:1.43581;stroke-linecap:butt;stroke-linejoin:miter;stroke-miterlimit:4;stroke-dasharray:none;stroke-opacity:1"
           d="m 292.66289,43.625465 0.93062,3.64478 c -0.28585,-0.006 -0.60269,0.0207 -0.79671,0.0536 l -0.64352,-2.67028 z"
           id="path2572-1"/>
        <path
           style="fill:#ffffff;stroke:none;stroke-width:1.43581;stroke-linecap:butt;stroke-linejoin:miter;stroke-miterlimit:4;stroke-dasharray:none;stroke-opacity:1"
           d="m 289.21016,51.215405 1.49656,-0.002 c -0.0771,-0.27532 -0.1298,-0.58892 -0.14615,-0.78503 l -1.03648,0.0153 z"
           id="path3341"/>
      </g>
    </g>
  </g>
</svg>
